<?xml version="1.0" encoding="UTF-8" ?>
<!DOCTYPE svg PUBLIC "-//W3C//DTD SVG 1.1//EN" "http://www.w3.org/Graphics/SVG/1.1/DTD/svg11.dtd">
<svg width="1181pt" height="731pt" viewBox="0 0 1181 731" version="1.1" xmlns="http://www.w3.org/2000/svg">
<path fill="#f4f4f4" d=" M 0.00 0.00 L 586.16 0.00 C 572.70 8.47 558.76 17.05 548.64 29.56 C 540.85 39.17 537.94 51.86 538.54 64.03 C 539.31 78.44 542.15 92.65 543.12 107.05 C 543.56 118.28 543.13 129.56 541.55 140.70 C 539.23 140.74 536.91 140.74 534.59 140.78 C 535.80 126.83 535.61 112.57 532.13 98.94 C 529.39 88.32 523.54 77.63 513.38 72.58 C 497.16 64.79 475.97 69.80 464.79 83.87 C 453.04 98.32 454.51 121.93 468.53 134.37 C 473.38 138.86 479.50 141.62 485.74 143.59 C 486.67 138.12 488.27 132.39 492.42 128.43 C 498.46 122.48 508.92 121.14 515.96 126.07 C 520.60 129.48 522.06 135.37 523.06 140.73 C 519.98 141.24 516.69 141.45 513.98 143.15 C 510.75 145.18 510.08 149.95 511.90 153.12 C 513.99 156.19 518.07 156.26 521.38 156.79 C 518.98 161.83 515.90 167.31 510.28 169.21 C 505.69 170.95 500.80 169.33 496.59 167.36 C 495.53 170.35 494.35 173.56 495.30 176.76 C 496.48 181.41 501.29 184.31 505.92 184.30 C 512.09 184.78 518.00 181.54 521.90 176.92 C 526.92 171.22 529.57 163.94 531.73 156.77 C 533.94 156.76 536.16 156.77 538.38 156.78 C 534.12 173.84 527.46 190.53 516.96 204.75 C 523.10 207.05 529.50 208.73 536.06 209.08 C 548.00 209.68 560.32 209.36 571.55 204.82 C 567.54 189.16 568.40 172.72 569.85 156.76 C 572.22 156.76 574.60 156.76 576.98 156.77 C 576.43 164.71 576.36 173.79 581.97 180.12 C 589.11 187.76 603.12 184.40 607.66 175.47 C 609.06 173.03 608.98 170.14 609.15 167.43 C 604.07 169.39 597.85 171.46 592.82 168.33 C 588.97 165.79 588.84 160.85 588.39 156.74 C 591.73 156.17 595.28 156.00 598.33 154.36 C 602.13 152.38 603.10 146.84 600.88 143.37 C 598.99 141.18 595.83 141.29 593.27 140.63 C 597.89 132.72 604.93 125.49 614.23 123.62 C 619.14 122.39 625.38 122.96 628.41 127.56 C 631.77 132.35 629.60 138.42 628.25 143.53 C 642.81 141.27 657.79 136.04 667.83 124.75 C 675.84 116.02 679.60 103.57 677.74 91.87 C 676.56 84.37 672.31 77.20 665.69 73.29 C 656.21 67.56 644.02 67.86 634.00 72.04 C 623.09 76.56 613.78 84.25 605.89 92.92 C 593.65 106.57 584.54 123.05 579.71 140.75 C 577.31 140.74 574.92 140.73 572.54 140.72 C 576.23 124.05 582.93 108.18 591.37 93.37 C 596.24 84.62 601.78 76.25 606.45 67.38 C 609.51 61.37 612.16 54.89 612.25 48.05 C 612.27 39.33 610.42 30.52 606.20 22.85 C 601.48 13.91 594.20 6.73 586.81 0.00 L 1181.00 0.00 L 1181.00 324.57 C 1180.31 317.38 1177.14 310.18 1171.16 305.88 C 1162.25 299.29 1150.80 297.94 1140.06 297.19 C 1123.79 296.46 1107.46 296.47 1091.22 297.78 C 1077.31 299.06 1062.46 303.06 1053.03 314.07 C 1043.43 325.07 1040.58 339.97 1038.64 354.00 C 1037.71 362.64 1037.50 373.01 1044.53 379.34 C 1052.47 386.07 1063.37 387.12 1073.31 388.28 C 1089.68 390.16 1106.36 388.32 1122.58 391.57 C 1127.82 392.55 1134.28 395.67 1133.99 401.93 C 1133.37 409.79 1131.77 418.30 1126.36 424.38 C 1120.38 430.64 1111.08 430.94 1103.01 431.21 C 1093.56 431.18 1084.03 431.68 1074.68 430.17 C 1070.83 429.46 1066.45 427.97 1064.78 424.08 C 1062.33 418.31 1064.02 411.94 1064.85 406.01 C 1052.25 405.99 1039.65 406.01 1027.05 405.99 C 1024.88 417.06 1023.01 429.05 1027.36 439.84 C 1030.35 447.27 1037.60 451.96 1045.08 453.99 C 1059.07 457.76 1073.70 456.89 1088.03 457.00 C 1102.67 457.15 1117.51 456.68 1131.73 452.87 C 1142.64 449.93 1153.14 444.13 1160.04 434.99 C 1167.94 424.69 1171.13 411.62 1172.40 398.92 C 1173.24 389.93 1172.46 379.87 1166.24 372.79 C 1159.91 365.69 1150.08 363.57 1141.06 362.36 C 1123.42 360.32 1105.57 361.17 1087.97 358.85 C 1083.78 358.20 1078.12 356.90 1077.43 351.89 C 1077.06 345.85 1078.72 339.74 1081.34 334.33 C 1084.09 328.72 1089.76 325.07 1095.80 323.93 C 1105.43 322.03 1115.31 322.97 1125.06 322.77 C 1130.40 323.07 1136.80 322.97 1140.69 327.30 C 1143.83 331.39 1142.54 336.83 1141.85 341.51 C 1154.46 341.52 1167.07 341.50 1179.68 341.52 C 1180.13 338.74 1180.68 335.97 1181.00 333.17 L 1181.00 731.00 L 496.09 731.00 C 633.63 728.32 771.29 708.87 902.76 667.78 C 961.21 649.43 1018.49 627.03 1073.24 599.49 C 1035.26 613.86 996.94 627.45 957.98 638.95 C 903.53 655.14 848.09 668.02 792.07 677.40 C 709.52 691.37 625.84 697.80 542.18 699.60 C 503.09 700.40 463.96 700.84 424.92 698.43 C 379.21 695.73 333.59 689.76 289.14 678.59 C 253.81 669.59 219.13 657.29 187.07 639.78 C 156.79 623.26 128.79 601.87 107.01 574.96 C 82.65 545.19 66.97 508.32 63.11 470.01 C 59.24 433.27 65.04 395.59 79.68 361.67 C 91.63 333.87 109.01 308.63 129.42 286.37 C 151.86 261.91 177.67 240.74 205.03 222.02 C 259.28 185.07 319.09 157.07 380.13 133.32 C 388.52 129.95 397.11 127.10 405.44 123.60 C 366.32 133.94 327.69 146.23 289.84 160.56 C 253.07 174.52 217.04 190.55 182.65 209.67 C 150.41 227.63 119.54 248.31 91.96 272.90 C 67.02 295.26 44.70 320.92 28.37 350.29 C 11.46 380.31 1.51 414.25 0.00 448.71 L 0.00 0.00 Z" />
<path fill="#4f307a" d=" M 586.16 0.00 L 586.81 0.00 C 594.20 6.73 601.48 13.91 606.20 22.85 C 610.42 30.52 612.27 39.33 612.25 48.05 C 612.16 54.89 609.51 61.37 606.45 67.38 C 601.78 76.25 596.24 84.62 591.37 93.37 C 582.93 108.18 576.23 124.05 572.54 140.72 C 574.92 140.73 577.31 140.74 579.71 140.75 C 584.54 123.05 593.65 106.57 605.89 92.92 C 613.78 84.25 623.09 76.56 634.00 72.04 C 644.02 67.86 656.21 67.56 665.69 73.29 C 672.31 77.20 676.56 84.37 677.74 91.87 C 679.60 103.57 675.84 116.02 667.83 124.75 C 657.79 136.04 642.81 141.27 628.25 143.53 C 629.60 138.42 631.77 132.35 628.41 127.56 C 625.38 122.96 619.14 122.39 614.23 123.62 C 604.93 125.49 597.89 132.72 593.27 140.63 C 595.83 141.29 598.99 141.18 600.88 143.37 C 603.10 146.84 602.13 152.38 598.33 154.36 C 595.28 156.00 591.73 156.17 588.39 156.74 C 588.84 160.85 588.97 165.79 592.82 168.33 C 597.85 171.46 604.07 169.39 609.15 167.43 C 608.98 170.14 609.06 173.03 607.66 175.47 C 603.12 184.40 589.11 187.76 581.97 180.12 C 576.36 173.79 576.43 164.71 576.98 156.77 C 574.60 156.76 572.22 156.76 569.85 156.76 C 568.40 172.72 567.54 189.16 571.55 204.82 C 560.32 209.36 548.00 209.68 536.06 209.08 C 529.50 208.73 523.10 207.05 516.96 204.75 C 527.46 190.53 534.12 173.84 538.38 156.78 C 536.16 156.77 533.94 156.76 531.73 156.77 C 529.57 163.94 526.92 171.22 521.90 176.92 C 518.00 181.54 512.09 184.78 505.92 184.30 C 501.29 184.31 496.48 181.41 495.30 176.76 C 494.35 173.56 495.53 170.35 496.59 167.36 C 500.80 169.33 505.69 170.95 510.28 169.21 C 515.90 167.31 518.98 161.83 521.38 156.79 C 518.07 156.26 513.99 156.19 511.90 153.12 C 510.08 149.95 510.75 145.18 513.98 143.15 C 516.69 141.45 519.98 141.24 523.06 140.73 C 522.06 135.37 520.60 129.48 515.96 126.07 C 508.92 121.14 498.46 122.48 492.42 128.43 C 488.27 132.39 486.67 138.12 485.74 143.59 C 479.50 141.62 473.38 138.86 468.53 134.37 C 454.51 121.93 453.04 98.32 464.79 83.87 C 475.97 69.80 497.16 64.79 513.38 72.58 C 523.54 77.63 529.39 88.32 532.13 98.94 C 535.61 112.57 535.80 126.83 534.59 140.78 C 536.91 140.74 539.23 140.74 541.55 140.70 C 543.13 129.56 543.56 118.28 543.12 107.05 C 542.15 92.65 539.31 78.44 538.54 64.03 C 537.94 51.86 540.85 39.17 548.64 29.56 C 558.76 17.05 572.70 8.47 586.16 0.00 Z" />
<path fill="#f4f4f4" d=" M 549.69 140.75 C 559.66 104.85 569.66 68.96 579.55 33.05 C 574.61 68.98 569.18 104.84 564.08 140.75 C 559.28 140.75 554.48 140.75 549.69 140.75 Z" />
<path fill="#f4f4f4" d=" M 489.15 92.25 C 491.54 87.89 493.93 83.54 496.30 79.16 C 496.90 83.53 497.51 87.89 498.10 92.26 C 502.93 92.25 507.77 92.26 512.61 92.23 C 508.17 95.12 503.68 97.93 499.22 100.77 C 499.87 105.42 500.54 110.07 501.09 114.74 C 497.66 111.91 494.29 109.00 490.91 106.11 C 486.09 109.03 481.39 112.14 476.59 115.08 C 479.20 110.26 481.90 105.50 484.51 100.69 C 481.15 97.90 477.82 95.08 474.50 92.25 C 479.38 92.26 484.27 92.25 489.15 92.25 Z" />
<path fill="#f4f4f4" d=" M 641.40 92.26 C 643.84 87.92 646.15 83.51 648.61 79.18 C 649.14 83.54 649.80 87.90 650.34 92.26 C 655.18 92.25 660.01 92.25 664.86 92.26 C 660.44 95.13 655.97 97.92 651.52 100.73 C 652.10 105.42 652.80 110.10 653.37 114.80 C 649.97 111.87 646.53 109.00 643.12 106.10 C 638.37 109.13 633.56 112.07 628.85 115.14 C 631.46 110.32 634.10 105.51 636.79 100.73 C 633.46 97.92 630.11 95.13 626.82 92.27 C 631.68 92.24 636.54 92.25 641.40 92.26 Z" />
<path fill="#4f307a" d=" M 289.84 160.56 C 327.69 146.23 366.32 133.94 405.44 123.60 C 397.11 127.10 388.52 129.95 380.13 133.32 C 319.09 157.07 259.28 185.07 205.03 222.02 C 177.67 240.74 151.86 261.91 129.42 286.37 C 109.01 308.63 91.63 333.87 79.68 361.67 C 65.04 395.59 59.24 433.27 63.11 470.01 C 66.97 508.32 82.65 545.19 107.01 574.96 C 128.79 601.87 156.79 623.26 187.07 639.78 C 219.13 657.29 253.81 669.59 289.14 678.59 C 333.59 689.76 379.21 695.73 424.92 698.43 C 463.96 700.84 503.09 700.40 542.18 699.60 C 625.84 697.80 709.52 691.37 792.07 677.40 C 848.09 668.02 903.53 655.14 957.98 638.95 C 996.94 627.45 1035.26 613.86 1073.24 599.49 C 1018.49 627.03 961.21 649.43 902.76 667.78 C 771.29 708.87 633.63 728.32 496.09 731.00 L 443.88 731.00 C 397.31 729.83 350.71 726.47 304.75 718.67 C 260.51 711.27 216.74 700.03 175.27 682.78 C 143.03 669.32 112.16 652.08 85.12 629.85 C 56.63 606.51 32.61 577.17 17.70 543.34 C 7.15 519.74 1.33 494.14 0.00 468.35 L 0.00 448.71 C 1.51 414.25 11.46 380.31 28.37 350.29 C 44.70 320.92 67.02 295.26 91.96 272.90 C 119.54 248.31 150.41 227.63 182.65 209.67 C 217.04 190.55 253.07 174.52 289.84 160.56 Z" />
<path fill="#f4f4f4" d=" M 547.04 156.77 C 551.81 156.76 556.58 156.74 561.35 156.78 C 556.19 170.07 551.07 183.38 545.80 196.62 C 545.89 183.33 546.78 170.05 547.04 156.77 Z" />
<path fill="#4f307a" d=" M 937.34 263.00 C 949.96 263.00 962.59 263.00 975.22 263.00 C 972.71 274.83 970.21 286.66 967.69 298.49 C 987.64 298.50 1007.59 298.48 1027.54 298.49 C 1025.53 308.17 1023.43 317.83 1021.42 327.51 C 1001.44 327.52 981.47 327.50 961.49 327.52 C 955.72 355.02 949.78 382.49 944.04 410.00 C 943.36 414.19 942.10 418.53 943.22 422.76 C 944.10 426.10 947.73 427.57 950.86 427.92 C 957.86 428.80 965.86 428.23 971.34 423.28 C 976.18 418.81 978.02 412.20 979.49 406.00 C 990.55 406.00 1001.60 405.99 1012.66 406.01 C 1009.16 419.72 1004.59 434.07 994.17 444.19 C 984.30 453.59 970.23 456.45 957.04 456.97 C 945.00 457.02 932.66 457.56 920.99 454.06 C 913.61 452.13 906.92 446.66 905.12 439.02 C 902.61 428.82 904.50 418.18 906.53 408.06 C 912.21 381.21 917.95 354.38 923.62 327.53 C 917.08 327.50 910.55 327.49 904.02 327.54 C 905.98 317.82 908.11 308.15 910.16 298.46 C 916.70 298.52 923.25 298.47 929.79 298.49 C 932.36 286.67 934.86 274.84 937.34 263.00 Z" />
<path fill="#4f307a" d=" M 278.33 303.24 C 293.03 297.00 309.32 297.17 324.99 296.73 C 338.97 296.84 353.15 296.31 366.88 299.42 C 375.15 301.34 383.59 305.45 387.90 313.13 C 392.68 321.79 391.88 332.16 390.00 341.52 C 377.39 341.49 364.78 341.54 352.18 341.49 C 352.99 336.43 354.37 329.96 349.94 326.15 C 344.81 322.41 338.00 322.93 331.98 322.74 C 321.33 323.10 310.02 321.47 300.03 326.01 C 292.10 329.80 288.98 338.91 287.91 347.05 C 287.54 350.10 287.36 353.92 290.12 355.98 C 292.90 358.10 296.52 358.54 299.88 359.08 C 317.87 361.19 336.09 360.28 354.04 362.72 C 363.43 364.13 373.87 367.36 378.98 376.06 C 384.31 385.26 383.40 396.46 381.75 406.55 C 379.55 419.95 374.13 433.53 363.34 442.29 C 355.53 448.80 345.71 452.35 335.85 454.34 C 323.74 456.74 311.34 457.15 299.03 457.00 C 284.33 456.87 269.31 457.83 254.99 453.85 C 247.24 451.79 239.94 446.53 237.27 438.72 C 233.53 428.18 235.36 416.72 237.35 406.02 C 249.98 405.97 262.62 406.02 275.25 406.00 C 274.27 411.44 273.24 417.15 274.57 422.62 C 275.71 426.87 279.91 429.28 284.01 429.97 C 293.57 431.75 303.35 431.14 313.01 431.23 C 320.92 430.93 329.87 430.76 336.04 425.06 C 341.82 419.31 343.45 410.79 344.27 403.00 C 344.84 398.93 342.35 395.02 338.63 393.47 C 331.85 390.50 324.29 390.20 317.01 389.70 C 301.64 389.16 286.10 389.48 270.95 386.43 C 263.89 384.93 256.30 382.31 252.07 376.06 C 247.82 369.58 248.17 361.37 248.99 353.99 C 250.50 342.76 252.63 331.30 258.25 321.31 C 262.71 313.28 269.89 306.86 278.33 303.24 Z" />
<path fill="#4f307a" d=" M 432.02 315.11 C 443.18 304.04 458.96 299.36 474.23 297.75 C 489.10 296.24 504.12 296.49 518.98 298.01 C 528.70 299.29 539.15 301.42 546.43 308.50 C 552.59 314.18 554.72 322.85 554.98 330.95 C 555.21 338.62 553.94 346.23 552.51 353.73 C 539.89 353.78 527.28 353.76 514.67 353.74 C 515.78 346.70 518.05 338.63 513.83 332.18 C 509.68 326.80 502.16 326.46 495.95 325.88 C 485.63 325.71 474.74 324.89 465.09 329.25 C 458.62 332.25 454.50 338.52 452.05 345.00 C 448.01 355.69 446.06 367.01 443.57 378.13 C 441.42 389.03 438.47 399.89 438.23 411.05 C 438.02 416.66 440.30 422.90 445.79 425.25 C 454.30 428.93 463.89 428.27 472.96 428.10 C 481.14 427.60 490.63 427.01 496.46 420.41 C 502.36 413.47 503.61 404.05 505.75 395.50 C 518.36 395.48 530.98 395.47 543.59 395.51 C 539.90 412.18 534.90 429.95 521.90 441.89 C 508.40 453.95 489.44 456.09 472.10 456.90 C 456.21 457.02 439.98 457.85 424.52 453.52 C 416.55 451.31 408.77 446.70 404.86 439.16 C 399.73 429.26 400.08 417.67 401.04 406.87 C 402.68 391.03 406.08 375.42 409.95 359.98 C 414.26 343.86 419.90 327.15 432.02 315.11 Z" />
<path fill="#4f307a" d=" M 636.48 297.56 C 650.78 296.44 665.18 296.42 679.46 297.84 C 689.58 299.03 700.25 300.93 708.51 307.34 C 715.46 312.68 718.61 321.54 719.11 330.04 C 720.04 345.17 716.89 360.14 713.95 374.90 C 710.75 389.70 707.54 404.65 701.67 418.67 C 697.20 429.31 690.44 439.39 680.53 445.66 C 666.72 454.32 649.98 456.15 634.04 456.93 C 619.63 457.07 605.08 457.51 590.87 454.71 C 582.80 453.14 574.55 450.37 568.58 444.47 C 562.76 438.61 560.51 430.15 560.26 422.09 C 559.71 406.12 563.23 390.40 566.43 374.86 C 570.42 357.37 574.23 339.31 583.77 323.86 C 590.47 312.88 601.56 305.05 613.87 301.58 C 621.22 299.36 628.85 298.24 636.48 297.56 Z" />
<path fill="#4f307a" d=" M 1053.03 314.07 C 1062.46 303.06 1077.31 299.06 1091.22 297.78 C 1107.46 296.47 1123.79 296.46 1140.06 297.19 C 1150.80 297.94 1162.25 299.29 1171.16 305.88 C 1177.14 310.18 1180.31 317.38 1181.00 324.57 L 1181.00 333.17 C 1180.68 335.97 1180.13 338.74 1179.68 341.52 C 1167.07 341.50 1154.46 341.52 1141.85 341.51 C 1142.54 336.83 1143.83 331.39 1140.69 327.30 C 1136.80 322.97 1130.40 323.07 1125.06 322.77 C 1115.31 322.97 1105.43 322.03 1095.80 323.93 C 1089.76 325.07 1084.09 328.72 1081.34 334.33 C 1078.72 339.74 1077.06 345.85 1077.43 351.89 C 1078.12 356.90 1083.78 358.20 1087.97 358.85 C 1105.57 361.17 1123.42 360.32 1141.06 362.36 C 1150.08 363.57 1159.91 365.69 1166.24 372.79 C 1172.46 379.87 1173.24 389.93 1172.40 398.92 C 1171.13 411.62 1167.94 424.69 1160.04 434.99 C 1153.14 444.13 1142.64 449.93 1131.73 452.87 C 1117.51 456.68 1102.67 457.15 1088.03 457.00 C 1073.70 456.89 1059.07 457.76 1045.08 453.99 C 1037.60 451.96 1030.35 447.27 1027.36 439.84 C 1023.01 429.05 1024.88 417.06 1027.05 405.99 C 1039.65 406.01 1052.25 405.99 1064.85 406.01 C 1064.02 411.94 1062.33 418.31 1064.78 424.08 C 1066.45 427.97 1070.83 429.46 1074.68 430.17 C 1084.03 431.68 1093.56 431.18 1103.01 431.21 C 1111.08 430.94 1120.38 430.64 1126.36 424.38 C 1131.77 418.30 1133.37 409.79 1133.99 401.93 C 1134.28 395.67 1127.82 392.55 1122.58 391.57 C 1106.36 388.32 1089.68 390.16 1073.31 388.28 C 1063.37 387.12 1052.47 386.07 1044.53 379.34 C 1037.50 373.01 1037.71 362.64 1038.64 354.00 C 1040.58 339.97 1043.43 325.07 1053.03 314.07 Z" />
<path fill="#4f307a" d=" M 752.53 298.49 C 765.15 298.50 777.76 298.46 790.38 298.51 C 784.95 323.72 779.49 348.92 774.06 374.12 C 771.74 385.41 768.93 396.64 767.85 408.14 C 767.45 413.62 767.56 420.07 771.96 424.05 C 777.25 428.31 784.42 428.53 790.90 428.94 C 799.42 429.07 808.22 429.27 816.40 426.48 C 821.79 424.71 825.88 420.26 828.12 415.16 C 831.28 408.07 832.75 400.40 834.43 392.87 C 841.05 361.40 847.74 329.94 854.46 298.48 C 867.06 298.50 879.67 298.48 892.28 298.49 C 887.42 321.58 882.55 344.65 877.68 367.74 C 874.12 384.22 871.04 400.88 865.58 416.88 C 861.82 427.84 856.22 438.83 846.62 445.78 C 835.87 453.63 822.30 456.04 809.33 457.19 C 794.88 458.22 780.33 458.26 765.92 456.72 C 755.55 455.38 744.28 453.18 736.71 445.37 C 729.31 437.56 728.78 426.02 729.39 415.88 C 730.92 395.94 736.05 376.54 740.02 357.00 C 744.19 337.50 748.33 317.98 752.53 298.49 Z" />
<path fill="#f4f4f4" d=" M 636.48 326.53 C 645.29 325.42 654.28 325.44 663.12 326.34 C 668.05 326.99 673.38 328.30 676.79 332.21 C 680.25 336.26 680.63 341.93 680.48 347.02 C 679.84 358.16 677.22 369.05 675.00 379.95 C 672.50 390.91 670.39 402.16 665.35 412.30 C 662.36 418.46 657.08 423.55 650.50 425.63 C 640.98 428.66 630.79 428.44 620.93 428.02 C 614.65 427.47 607.55 426.86 602.91 422.08 C 598.39 417.23 598.79 410.09 599.16 403.95 C 600.41 391.83 603.23 379.95 605.81 368.07 C 608.38 357.63 610.56 346.68 616.68 337.63 C 621.01 330.94 628.83 327.57 636.48 326.53 Z" />
<path fill="#f4f4f4" d=" M 0.00 468.35 C 1.33 494.14 7.15 519.74 17.70 543.34 C 32.61 577.17 56.63 606.51 85.12 629.85 C 112.16 652.08 143.03 669.32 175.27 682.78 C 216.74 700.03 260.51 711.27 304.75 718.67 C 350.71 726.47 397.31 729.83 443.88 731.00 L 0.00 731.00 L 0.00 468.35 Z" />
<path fill="#4f307a" d=" M 208.16 561.50 C 212.93 539.25 217.66 516.98 222.48 494.74 C 227.73 494.75 232.98 494.73 238.23 494.75 C 236.90 501.04 235.52 507.31 234.17 513.60 C 240.95 511.98 248.49 510.79 255.06 513.79 C 260.94 516.43 264.19 522.84 264.43 529.08 C 265.16 541.29 259.41 554.79 247.85 560.11 C 240.35 563.43 230.71 563.63 224.11 558.23 C 223.81 559.31 223.50 560.41 223.21 561.51 C 218.19 561.51 213.17 561.51 208.16 561.50 Z" />
<path fill="#4f307a" d=" M 814.15 494.77 C 819.41 494.72 824.67 494.76 829.93 494.73 C 825.23 517.00 820.38 539.24 815.66 561.50 C 810.39 561.51 805.12 561.51 799.85 561.50 C 800.12 560.33 800.67 557.97 800.94 556.80 C 795.71 561.07 788.94 563.84 782.10 562.50 C 776.34 561.74 772.05 556.76 770.69 551.34 C 767.09 537.49 773.61 521.16 786.68 514.76 C 793.96 510.99 802.49 511.67 810.28 513.13 C 811.56 507.00 812.90 500.90 814.15 494.77 Z" />
<path fill="#4f307a" d=" M 281.22 520.27 C 289.39 512.18 302.04 510.29 312.92 512.78 C 317.96 513.86 322.82 517.13 324.60 522.13 C 326.79 528.01 325.58 534.41 323.95 540.26 C 311.98 540.26 300.02 540.21 288.06 540.29 C 288.22 544.03 289.72 548.02 293.30 549.75 C 299.15 552.59 306.12 552.00 312.12 549.90 C 315.38 548.84 318.15 546.49 321.61 546.03 C 320.81 550.31 319.93 554.57 319.02 558.83 C 308.97 562.86 297.53 564.21 287.05 561.08 C 280.66 559.25 275.04 554.21 273.61 547.57 C 271.61 538.00 274.08 527.19 281.22 520.27 Z" />
<path fill="#4f307a" d=" M 379.93 514.93 C 390.05 512.76 400.56 510.88 410.88 512.68 C 416.83 513.70 422.53 517.55 424.58 523.40 C 428.49 535.07 425.06 549.41 414.90 556.85 C 406.74 562.96 395.23 564.09 385.96 559.89 C 384.63 566.26 383.22 572.63 381.85 579.00 C 376.61 579.00 371.38 578.99 366.14 579.00 C 370.78 557.65 375.33 536.28 379.93 514.93 Z" />
<path fill="#4f307a" d=" M 487.93 519.89 C 494.22 513.80 503.29 511.43 511.86 511.79 C 518.33 512.04 525.68 513.62 529.50 519.40 C 533.43 525.66 532.16 533.55 530.22 540.26 C 518.26 540.25 506.30 540.23 494.34 540.27 C 494.45 543.97 495.83 547.97 499.40 549.67 C 505.38 552.60 512.55 552.05 518.66 549.78 C 521.81 548.72 524.48 546.41 527.87 546.04 C 527.09 550.32 526.13 554.57 525.22 558.83 C 515.44 562.77 504.34 564.09 494.08 561.33 C 487.59 559.62 481.65 554.79 480.04 548.07 C 477.67 538.22 480.39 526.89 487.93 519.89 Z" />
<path fill="#4f307a" d=" M 547.64 515.01 C 557.25 512.79 567.23 511.15 577.09 512.43 C 583.45 513.21 589.86 516.83 592.15 523.10 C 596.57 535.44 592.37 551.00 580.90 558.02 C 572.91 563.09 562.37 563.82 553.76 559.90 C 552.39 566.26 550.98 572.62 549.66 579.00 C 544.40 579.00 539.13 578.99 533.87 579.00 C 538.39 557.66 543.17 536.37 547.64 515.01 Z" />
<path fill="#4f307a" d=" M 617.99 516.02 C 630.06 509.35 644.57 512.09 657.36 514.94 C 654.09 530.46 650.80 545.98 647.52 561.49 C 642.29 561.52 637.07 561.51 631.84 561.50 C 632.20 559.92 632.57 558.34 632.95 556.77 C 627.29 561.09 619.95 564.27 612.77 562.13 C 607.86 560.86 604.54 556.42 603.10 551.76 C 599.03 538.28 605.59 522.65 617.99 516.02 Z" />
<path fill="#4f307a" d=" M 714.60 522.56 C 719.95 515.77 728.57 512.27 737.06 511.83 C 744.29 511.55 752.75 512.34 757.79 518.20 C 762.75 524.45 761.61 533.16 759.35 540.27 C 747.43 540.24 735.51 540.24 723.59 540.27 C 723.71 543.88 724.97 547.75 728.38 549.54 C 733.81 552.41 740.42 552.06 746.18 550.37 C 749.99 549.35 753.12 546.64 757.05 545.93 C 756.33 550.24 755.29 554.48 754.42 558.76 C 744.60 562.87 733.36 564.12 723.04 561.23 C 716.28 559.46 710.22 554.09 708.94 547.04 C 707.44 538.59 709.15 529.34 714.60 522.56 Z" />
<path fill="#4f307a" d=" M 441.43 513.23 C 446.68 513.25 451.94 513.23 457.20 513.25 C 456.70 515.47 456.27 517.71 455.76 519.94 C 461.78 515.59 468.95 512.11 476.60 513.26 C 475.47 518.28 474.36 523.30 473.23 528.32 C 466.77 526.97 460.02 527.23 453.75 529.28 C 451.43 540.02 449.14 550.77 446.81 561.51 C 441.59 561.51 436.37 561.52 431.16 561.50 C 434.52 545.40 438.02 529.32 441.43 513.23 Z" />
<path fill="#4f307a" d=" M 670.58 513.25 C 675.84 513.24 681.10 513.22 686.37 513.26 C 685.90 515.49 685.49 517.74 685.01 519.97 C 690.97 515.56 698.15 512.08 705.78 513.26 C 704.63 518.29 703.65 523.36 702.44 528.38 C 695.99 526.87 689.25 527.32 682.95 529.24 C 680.60 539.99 678.31 550.76 675.98 561.51 C 670.76 561.50 665.53 561.55 660.32 561.46 C 663.72 545.39 667.20 529.33 670.58 513.25 Z" />
<path fill="#f4f4f4" d=" M 289.59 530.98 C 291.89 524.57 299.05 519.66 305.86 522.21 C 309.59 523.32 310.58 527.55 310.23 530.99 C 303.35 531.00 296.47 531.02 289.59 530.98 Z" />
<path fill="#f4f4f4" d=" M 393.81 522.91 C 397.83 522.45 402.61 521.12 406.03 524.07 C 409.39 527.04 410.06 532.01 409.61 536.26 C 409.10 541.83 406.65 547.84 401.38 550.47 C 397.25 552.69 392.31 552.19 387.97 550.91 C 389.96 541.58 391.89 532.25 393.81 522.91 Z" />
<path fill="#f4f4f4" d=" M 501.01 523.92 C 504.84 521.26 510.59 520.45 514.41 523.56 C 516.50 525.39 516.43 528.43 516.48 530.98 C 509.61 531.00 502.75 531.03 495.88 530.96 C 497.19 528.36 498.50 525.57 501.01 523.92 Z" />
<path fill="#f4f4f4" d=" M 561.48 522.95 C 565.35 522.42 569.76 521.28 573.24 523.70 C 577.27 526.68 577.91 532.27 577.32 536.90 C 576.73 542.42 573.98 548.19 568.75 550.65 C 564.69 552.70 559.99 552.10 555.78 550.94 C 557.64 541.61 559.64 532.30 561.48 522.95 Z" />
<path fill="#f4f4f4" d=" M 629.15 523.19 C 632.59 521.59 636.47 522.19 640.07 522.81 C 638.36 531.23 636.54 539.63 634.88 548.07 C 631.51 549.82 627.86 551.73 623.92 550.90 C 620.93 550.64 618.68 547.97 618.38 545.08 C 617.02 536.64 620.95 526.68 629.15 523.19 Z" />
<path fill="#f4f4f4" d=" M 725.03 530.94 C 727.35 524.34 734.89 519.52 741.74 522.36 C 745.24 523.59 745.87 527.64 745.76 530.87 C 738.85 531.10 731.94 531.00 725.03 530.94 Z" />
<path fill="#f4f4f4" d=" M 232.12 523.28 C 235.91 522.67 240.05 521.64 243.71 523.31 C 246.90 524.84 247.86 528.70 248.00 531.94 C 248.30 538.02 246.87 544.90 241.75 548.77 C 237.40 552.15 231.17 552.26 226.60 549.23 C 228.47 540.59 230.10 531.89 232.12 523.28 Z" />
<path fill="#f4f4f4" d=" M 795.61 523.69 C 799.47 521.66 803.94 522.49 807.97 523.49 C 806.39 531.68 804.41 539.79 802.78 547.97 C 799.04 550.30 794.20 552.33 789.93 550.18 C 786.58 548.47 785.71 544.36 786.00 540.92 C 786.44 534.20 789.40 526.98 795.61 523.69 Z" />
<path fill="#4f307a" d=" M 896.50 531.83 C 901.38 531.09 907.02 530.71 911.28 533.68 C 914.54 536.65 913.90 541.60 913.27 545.52 C 912.18 551.77 909.79 559.17 903.11 561.36 C 897.73 562.92 890.96 563.52 886.45 559.57 C 882.39 555.06 883.70 548.40 885.25 543.12 C 886.57 537.66 890.66 532.58 896.50 531.83 Z" />
<path fill="#4f307a" d=" M 1010.57 531.69 C 1014.78 531.14 1019.36 530.95 1023.31 532.77 C 1026.64 534.47 1027.54 538.53 1027.11 541.96 C 1026.51 547.26 1025.48 552.83 1022.29 557.24 C 1018.81 561.91 1012.45 562.79 1007.03 562.43 C 1002.90 562.25 998.49 559.79 997.61 555.49 C 996.45 549.98 997.92 544.28 1000.14 539.24 C 1001.97 535.07 1006.08 532.22 1010.57 531.69 Z" />
<path fill="#4f307a" d=" M 1124.43 531.64 C 1128.63 531.10 1133.19 531.00 1137.10 532.91 C 1141.26 535.29 1141.09 540.84 1140.28 544.95 C 1139.28 551.09 1137.26 558.30 1131.00 561.00 C 1126.25 562.77 1120.68 563.24 1115.93 561.27 C 1111.62 559.48 1110.25 554.28 1110.78 550.03 C 1111.35 545.28 1112.46 540.33 1115.42 536.47 C 1117.56 533.64 1120.97 532.09 1124.43 531.64 Z" />
</svg>
